<?xml version="1.0" ?><svg height="48px" version="1.1" viewBox="0 0 48 48" width="48px" xmlns="http://www.w3.org/2000/svg" xmlns:xlink="http://www.w3.org/1999/xlink"><title/><desc/><g fill="none" fill-rule="evenodd" id="Page-1" stroke="black" stroke-width="1"><g id="Artboard-Copy" transform="translate(-227.000000, -189.000000)"><path d="M240,198 L240,195 C240,194.447715 240.447715,194 241,194 L261,194 C261.552285,194 262,194.447715 262,195 L262,198 L240,198 Z M240,200 L262,200 L262,225.739448 C262,225.988214 261.907278,226.228049 261.73994,226.412121 C261.368433,226.820779 260.735985,226.850895 260.327327,226.479388 L251,218 L241.672673,226.479388 C241.488601,226.646727 241.248766,226.739455 241,226.739455 C240.447715,226.739455 240,226.291733 240,225.739448 L240,200 Z" fill="#fff" id="ribbon"/><g id="slices" transform="translate(47.000000, 9.000000)"/></g></g></svg>