<svg xmlns="http://www.w3.org/2000/svg"  viewBox="10 10 80 85" width="80px" height="80px"><path d="M 72.644531 18.300781 A 1.0001 1.0001 0 0 0 72.398438 18.335938 L 71.607422 18.552734 C 66.395962 19.974228 62.917233 21.93728 59.945312 23.615234 C 56.466254 25.578264 53.963336 27 50 27 C 46.036664 27 43.534802 25.578299 40.054688 23.615234 C 37.084747 21.938268 33.605991 19.974228 28.394531 18.552734 L 27.601562 18.337891 A 1.0001 1.0001 0 0 0 26.361328 19.511719 L 26.535156 20.316406 C 29.252091 32.996422 27.480071 37.976088 25.539062 43.662109 A 1.0001 1.0001 0 0 0 25.539062 43.664062 L 25.078125 45.021484 A 1.0001 1.0001 0 0 0 25.078125 45.025391 C 20.757792 57.998375 22.462769 66.136187 26.824219 75.035156 L 27.173828 74.806641 C 27.041053 74.893061 26.967603 74.983818 26.839844 75.070312 C 26.900314 75.193522 26.930694 75.313981 26.992188 75.4375 L 26.818359 75.087891 C 24.687159 76.534566 23.191407 77.996837 22.28125 79.746094 C 21.129747 81.948054 21 84.346676 21 86.5 L 21 87 A 1.0001 1.0001 0 0 0 22 88 L 78 88 A 1.0001 1.0001 0 0 0 79 87 L 79 86.5 C 79 84.030802 78.783862 81.940315 77.865234 80.025391 C 76.99838 78.21839 75.463602 76.649957 73.179688 75.091797 L 73.011719 75.425781 C 73.071019 75.306583 73.101819 75.194937 73.160156 75.076172 C 73.036082 74.991732 72.970693 74.90276 72.841797 74.818359 L 73.175781 75.037109 C 77.636195 65.943014 79.262844 58.058326 74.921875 45.023438 C 74.77938 44.595951 74.635705 44.176427 74.460938 43.662109 A 1.0001 1.0001 0 0 0 74.460938 43.660156 C 72.518995 37.977372 70.748871 32.995469 73.466797 20.314453 L 73.638672 19.511719 A 1.0001 1.0001 0 0 0 72.644531 18.300781 z M 71.380859 20.755859 C 70.431857 25.456331 70.108951 29.191902 70.173828 32.328125 C 68.011662 31.294955 65.516769 30.725588 62.816406 31.824219 C 63.052386 30.202171 63.143128 28.84241 62.818359 27.755859 C 62.518322 26.752193 61.861493 25.975829 60.857422 25.396484 C 60.881446 25.382931 60.903664 25.371003 60.927734 25.357422 C 63.72404 23.778619 66.882386 22.08533 71.380859 20.755859 z M 28.619141 20.757812 C 33.117264 22.087255 36.277991 23.779645 39.072266 25.357422 C 39.420762 25.554009 39.753058 25.726515 40.09375 25.916016 C 39.14613 28.826999 39.354655 31.06018 39.460938 31.873047 C 36.821908 31.217895 35.037109 31.007813 35.037109 31.007812 A 0.50005 0.50005 0 0 0 34.617188 31.244141 L 33.109375 33.685547 C 31.432203 32.215455 30.056543 31.23205 29.826172 31.068359 C 29.790935 28.198128 29.44458 24.847479 28.619141 20.757812 z M 59.783203 25.984375 C 60.98972 26.49817 61.580931 27.10305 61.861328 28.041016 C 62.157471 29.031653 62.075376 30.471128 61.734375 32.472656 A 0.50005 0.50005 0 0 0 62.462891 32.996094 C 65.362624 31.439443 67.84809 32.218469 70.216797 33.464844 C 70.292257 34.893297 70.448611 36.193861 70.664062 37.40625 A 0.50005 0.50005 0 0 0 70.652344 37.550781 C 70.906245 43.581909 66.720703 47.490234 66.720703 47.490234 A 0.50005 0.50005 0 0 0 67.136719 48.349609 C 67.136719 48.349609 68.368041 48.167747 69.78125 47.658203 C 70.901492 47.254291 72.161383 46.649379 73.039062 45.697266 C 73.613641 47.426052 74.073869 49.041125 74.443359 50.576172 C 73.27272 53.237089 71.310126 54.679661 68.958984 56.236328 C 67.073717 57.484545 64.957184 58.807745 62.947266 60.853516 C 63.154184 60.135073 63.326786 59.42334 63.470703 58.716797 A 0.50005 0.50005 0 0 0 63.568359 58.414062 C 63.568359 58.3812 63.569918 58.318677 63.570312 58.283203 C 64.110853 55.36982 64.093488 52.557085 63.384766 49.845703 C 61.975497 44.454218 57.855399 39.540746 50.253906 35.068359 A 0.50005 0.50005 0 0 0 50.015625 35 A 0.50005 0.50005 0 0 0 49.746094 35.068359 C 42.144601 39.540746 38.024503 44.454218 36.615234 49.845703 C 35.906512 52.557085 35.889146 55.36982 36.429688 58.283203 C 36.430082 58.318677 36.431641 58.3812 36.431641 58.414062 A 0.50005 0.50005 0 0 0 36.527344 58.714844 C 36.54663 58.809572 36.573303 58.905058 36.59375 59 C 32.161277 57.117136 29.367143 55.11205 27.691406 53.558594 C 26.274592 52.245166 25.672982 51.314288 25.478516 50.976562 C 25.856572 49.317036 26.339832 47.571975 26.962891 45.697266 C 27.840536 46.648827 29.098881 47.254425 30.21875 47.658203 C 31.631959 48.167747 32.863281 48.349609 32.863281 48.349609 A 0.50005 0.50005 0 0 0 33.279297 47.490234 C 33.279297 47.490234 29.093755 43.581909 29.347656 37.550781 A 0.50005 0.50005 0 0 0 29.335938 37.408203 C 29.609845 35.867154 29.791324 34.184297 29.828125 32.277344 C 30.457999 32.7126 31.443957 33.436176 32.898438 34.791016 A 0.50005 0.50005 0 0 0 33.666016 34.6875 L 35.291016 32.056641 C 35.418551 32.056667 36.538435 32.031191 39.865234 32.966797 A 0.50005 0.50005 0 0 0 40.492188 32.394531 C 40.492188 32.394531 40.008977 29.628134 40.992188 26.410156 C 43.723905 27.876577 46.384364 29 50 29 C 53.954604 29 56.769657 27.654894 59.783203 25.984375 z M 50 36.103516 C 57.27613 40.445659 61.108516 45.088041 62.417969 50.097656 C 62.676333 51.08609 62.835194 52.091578 62.90625 53.115234 C 62.73 52.659354 62.524762 52.203396 62.246094 51.755859 C 60.995544 49.747498 58.593641 47.989899 54.226562 47.306641 A 0.50005 0.50005 0 0 0 54.171875 47.298828 C 53.227836 47.153699 52.196662 47.057903 51.060547 47.021484 A 0.50005 0.50005 0 0 0 50.910156 46.994141 A 0.50005 0.50005 0 0 0 50.757812 47.015625 C 50.506727 47.009927 50.260737 47 50 47 C 49.708364 47 49.431919 47.008509 49.152344 47.015625 A 0.50005 0.50005 0 0 0 48.982422 46.994141 A 0.50005 0.50005 0 0 0 48.837891 47.023438 A 0.50005 0.50005 0 0 0 48.835938 47.023438 C 47.739374 47.062142 46.744098 47.158013 45.828125 47.298828 A 0.50005 0.50005 0 0 0 45.761719 47.296875 A 0.50005 0.50005 0 0 0 45.595703 47.333984 C 43.770682 47.635145 42.290301 48.123862 41.105469 48.744141 A 0.50029803 0.50029803 0 0 0 40.925781 48.845703 C 39.44813 49.656546 38.43089 50.668635 37.753906 51.755859 C 37.475238 52.203396 37.27 52.659354 37.09375 53.115234 C 37.164806 52.091578 37.323667 51.08609 37.582031 50.097656 C 38.891484 45.088041 42.72387 40.445659 50 36.103516 z M 50 38 L 47 42 L 50 45.5 L 53 42 L 50 38 z M 71.4375 40.707031 C 71.787156 41.949818 72.169626 43.1398 72.568359 44.306641 C 72.602024 44.40571 72.624761 44.473882 72.65625 44.566406 C 72.013471 45.539523 70.679228 46.270491 69.441406 46.716797 C 68.847343 46.930991 68.764463 46.907131 68.330078 47.009766 C 69.233744 45.991236 70.846267 43.952471 71.4375 40.707031 z M 28.5625 40.708984 C 29.154014 43.953332 30.76643 45.991432 31.669922 47.009766 C 31.235537 46.907131 31.152657 46.930986 30.558594 46.716797 C 29.320772 46.270491 27.986529 45.539523 27.34375 44.566406 L 27.431641 44.308594 C 27.830095 43.141354 28.213003 41.951781 28.5625 40.708984 z M 50 48 C 50.244651 48 50.448524 48.020434 50.683594 48.025391 L 53.677734 51.808594 L 50.986328 53.535156 A 0.50005 0.50005 0 0 0 50.767578 54.052734 L 51.205078 56.251953 A 0.50005 0.50005 0 0 0 51.935547 56.59375 C 51.935547 56.59375 57.875095 53.413399 62.552734 56.619141 C 62.572406 57.215896 62.575734 57.747888 62.570312 58.177734 C 62.190013 60.189476 61.529556 62.266636 60.625 64.414062 L 56.65625 66.310547 A 0.50005 0.50005 0 1 0 57.085938 67.212891 L 59.986328 65.826172 C 59.839915 66.142415 59.708954 66.45419 59.552734 66.773438 C 58.417296 68.862293 56.782702 71.075701 54.994141 72.851562 C 53.378822 74.456287 52.066375 75 50 75 C 47.933625 75 46.621178 74.456287 45.005859 72.851562 C 43.218765 71.077158 41.584546 68.866642 40.449219 66.779297 C 40.301332 66.477171 40.178174 66.182247 40.039062 65.882812 L 42.820312 67.212891 A 0.50005 0.50005 0 1 0 43.25 66.310547 L 39.396484 64.46875 C 38.479949 62.301673 37.813252 60.206748 37.429688 58.177734 C 37.42408 57.733117 37.426151 57.178309 37.449219 56.556641 C 42.111786 53.458827 47.970703 56.59375 47.970703 56.59375 A 0.50005 0.50005 0 0 0 48.701172 56.251953 L 49.138672 54.052734 A 0.50005 0.50005 0 0 0 48.919922 53.535156 L 46.228516 51.808594 L 49.21875 48.029297 C 49.485858 48.022838 49.720395 48 50 48 z M 52 48.076172 C 52.647069 48.11805 53.270968 48.171575 53.839844 48.251953 L 55.953125 50.947266 A 0.50005 0.50005 0 0 0 56.609375 51.064453 L 58.710938 49.769531 C 59.977015 50.490733 60.826376 51.367619 61.396484 52.283203 C 62.027305 53.29629 62.317442 54.367976 62.457031 55.365234 C 58.120456 52.880387 53.393373 54.808764 52.0625 55.439453 L 51.814453 54.191406 L 54.681641 52.351562 A 0.50005 0.50005 0 0 0 54.804688 51.619141 L 52 48.076172 z M 47.902344 48.080078 L 45.101562 51.619141 A 0.50005 0.50005 0 0 0 45.224609 52.351562 L 48.091797 54.191406 L 47.841797 55.439453 C 46.518647 54.812714 41.857459 52.915927 37.550781 55.3125 C 37.693524 54.330112 37.983795 53.278464 38.603516 52.283203 C 39.166338 51.379321 40.001018 50.512833 41.240234 49.796875 L 43.296875 51.064453 A 0.50005 0.50005 0 0 0 43.953125 50.947266 L 46.050781 48.267578 C 46.624365 48.183433 47.248184 48.124645 47.902344 48.080078 z M 55.318359 48.515625 C 56.201456 48.712899 56.974356 48.959313 57.652344 49.246094 L 56.464844 49.978516 L 55.318359 48.515625 z M 44.568359 48.539062 L 43.441406 49.978516 L 42.289062 49.269531 C 42.952668 48.984458 43.706089 48.737792 44.568359 48.539062 z M 74.785156 52.097656 C 75.114666 53.701485 75.32793 55.209527 75.439453 56.648438 A 0.50005 0.50005 0 0 0 75.425781 56.697266 C 75.425781 56.697266 74.557411 60.983075 69.552734 63.529297 A 0.50005 0.50005 0 1 0 70.005859 64.419922 C 73.047351 62.872507 74.667536 60.690061 75.525391 59.068359 C 75.512665 62.111241 75.011922 64.885057 74.117188 67.648438 C 72.321384 69.323308 70.044474 70.08175 67.560547 70.769531 A 0.50037001 0.50037001 0 1 0 67.826172 71.734375 C 69.81961 71.182407 71.782691 70.558216 73.505859 69.398438 C 72.943595 70.877416 72.272339 72.376129 71.515625 73.927734 C 71.003951 74.533643 70.067915 74.992078 68.84375 75.339844 C 67.597226 75.693961 66.082889 75.941689 64.519531 76.226562 C 61.807692 76.720713 58.916891 77.308902 56.951172 78.947266 C 56.932499 78.447561 56.926836 77.966163 56.943359 77.513672 C 59.306321 74.501695 62.225226 73.3264 65.248047 72.445312 A 0.50005 0.50005 0 0 0 65.101562 71.464844 A 0.50005 0.50005 0 0 0 64.96875 71.486328 C 62.255613 72.277149 59.461459 73.365875 57.103516 75.8125 C 57.362288 74.09039 57.93472 72.544137 58.746094 70.769531 C 63.098576 64.858077 70.175781 62.123047 70.175781 62.123047 A 0.50005 0.50005 0 0 0 69.998047 61.154297 A 0.50005 0.50005 0 0 0 69.816406 61.189453 C 69.816406 61.189453 64.702186 63.143852 60.353516 67.417969 C 60.3849 67.353964 60.407679 67.303178 60.439453 67.238281 A 0.50005 0.50005 0 0 0 60.449219 67.220703 C 60.453788 67.211368 60.458329 67.202693 60.462891 67.193359 A 0.50005 0.50005 0 0 0 60.46875 67.179688 C 61.112273 65.862038 61.660714 64.56607 62.138672 63.285156 A 0.50045468 0.50045468 0 0 0 62.146484 63.275391 C 64.473508 60.269083 67.096827 58.669188 69.511719 57.070312 C 71.562924 55.71223 73.473387 54.328471 74.785156 52.097656 z M 25.1875 52.294922 C 25.586634 52.823195 26.158075 53.501616 27.011719 54.292969 C 28.862702 56.008885 31.94335 58.200812 36.867188 60.203125 C 37.276403 61.756873 37.824744 63.337081 38.509766 64.947266 A 0.50005 0.50005 0 0 0 38.564453 65.078125 C 35.123846 61.919864 31.234375 60.804687 31.234375 60.804688 A 0.50005 0.50005 0 0 0 31.087891 60.78125 A 0.50005 0.50005 0 0 0 30.957031 61.763672 C 30.957031 61.763672 36.594274 63.417224 40.050781 68.244141 C 41.546538 71.289024 42.550043 73.394332 42.910156 75.910156 C 40.531263 73.621533 37.413976 72.483586 34.423828 71.519531 C 31.004551 70.417122 27.76556 69.494591 25.863281 67.503906 C 24.964389 64.636533 24.47473 61.722035 24.517578 58.498047 C 27.178762 62.451774 30.917969 63.888672 30.917969 63.888672 A 0.50040144 0.50040144 0 1 0 31.273438 62.953125 C 31.273438 62.953125 27.04664 61.333865 24.595703 56.693359 C 24.696683 55.295078 24.884044 53.840002 25.1875 52.294922 z M 43.5 57 C 42.672 57 42 57.672 42 58.5 C 42 59.328 42.672 60 43.5 60 C 44.328 60 45 59.328 45 58.5 C 45 58.483 44.995141 58.466219 44.994141 58.449219 C 44.916141 58.477219 44.837 58.5 44.75 58.5 C 44.336 58.5 44 58.164 44 57.75 C 44 57.533 44.094188 57.340125 44.242188 57.203125 C 44.022188 57.077125 43.772 57 43.5 57 z M 56.5 57 C 55.672 57 55 57.672 55 58.5 C 55 59.328 55.672 60 56.5 60 C 57.328 60 58 59.328 58 58.5 C 58 58.483 57.995141 58.466219 57.994141 58.449219 C 57.916141 58.477219 57.837 58.5 57.75 58.5 C 57.336 58.5 57 58.164 57 57.75 C 57 57.533 57.094188 57.340125 57.242188 57.203125 C 57.022188 57.077125 56.772 57 56.5 57 z M 48 64 C 48 64 49 65 50 65 C 51 65 52 64 52 64 L 48 64 z M 48.888672 67.083984 C 47.320801 67.027293 46 69.021484 46 69.021484 C 47.5 71.021484 48.75 71.5 50 71.5 C 51.25 71.5 52.5 71.021484 54 69.021484 C 54 69.021484 52 66 50 67.5 C 49.625 67.21875 49.250488 67.097067 48.888672 67.083984 z M 26.486328 69.326172 C 28.596965 70.807073 31.358137 71.581158 34.117188 72.470703 C 37.479476 73.554739 40.812594 74.814011 43.056641 77.521484 C 43.133943 79.664505 42.825575 82.262609 42.072266 86 L 35.291016 86 C 33.259011 82.644117 31.483265 79.638673 29.986328 76.847656 C 31.201438 77.351154 32.614566 77.631822 34.097656 77.894531 C 36.261828 78.277885 38.580009 78.619938 40.625 79.433594 A 0.50014619 0.50014619 0 0 0 40.994141 78.503906 C 38.799132 77.630562 36.413313 77.289552 34.271484 76.910156 C 32.140779 76.53273 30.265266 76.104036 29.074219 75.210938 A 1.0001 1.0001 0 0 0 28.988281 74.955078 L 28.789062 74.558594 L 28.789062 74.556641 C 27.89849 72.768411 27.127044 71.044467 26.486328 69.326172 z M 42.865234 72.007812 C 43.327695 72.54827 43.806574 73.071802 44.300781 73.5625 C 46.039463 75.289777 47.740375 76 50 76 C 52.259625 76 53.960537 75.289777 55.699219 73.5625 C 56.193426 73.071802 56.672305 72.54827 57.134766 72.007812 C 56.489876 73.669 56.089484 75.25345 55.976562 77.140625 A 0.50005 0.50005 0 0 0 55.972656 77.150391 A 0.50005 0.50005 0 0 0 55.970703 77.154297 L 51.6875 86 L 48.3125 86 L 44.023438 77.132812 C 43.909876 75.249122 43.509229 73.666695 42.865234 72.007812 z M 70.589844 75.765625 C 68.986378 78.855918 67.005108 82.207677 64.708984 86 L 57.927734 86 C 57.465768 83.708049 57.178992 81.857395 57.037109 80.263672 C 58.66617 78.476698 61.68557 77.760083 64.699219 77.210938 C 66.250236 76.928312 67.785242 76.679164 69.117188 76.300781 C 69.645746 76.150627 70.133457 75.971619 70.589844 75.765625 z M 28.556641 76.292969 C 30.09348 79.250419 31.974336 82.446724 34.121094 86 L 23.03125 86 C 23.0582 84.110143 23.22894 82.248176 24.054688 80.669922 A 1.0001 1.0001 0 0 0 24.054688 80.667969 C 24.828558 79.180644 26.071623 77.909131 28.263672 76.482422 L 28.263672 76.484375 L 28.556641 76.292969 z M 71.441406 76.292969 L 71.732422 76.482422 C 74.072225 78.012145 75.337127 79.37855 76.0625 80.890625 C 76.729736 82.281513 76.935677 83.92451 76.96875 86 L 65.878906 86 C 68.025622 82.446562 69.904502 79.251081 71.441406 76.292969 z M 44.023438 79.435547 L 47.203125 86 L 43.099609 86 C 43.624067 83.364666 43.932938 81.225174 44.023438 79.435547 z M 55.976562 79.439453 C 55.986514 79.635647 55.988999 79.823351 56.003906 80.027344 A 0.50064424 0.50064424 0 0 0 56.025391 80.251953 C 56.154804 81.858518 56.453992 83.756903 56.900391 86 L 52.796875 86 L 55.976562 79.439453 z"/></svg>