<svg xmlns="http://www.w3.org/2000/svg"  viewBox="0 0 48 48" width="48px" height="48px" fill-rule="evenodd" clip-rule="evenodd" baseProfile="basic"><path fill-rule="evenodd" d="M11.745,36.863	c-2.129-5.021-2.74-11.175-2.74-15.864c0-7.579,5.273-15,15-15c9.725,0,15,7.421,15,15c0,4.689-0.612,10.843-2.741,15.864	c-2.141,5.047-5.92,9.136-12.259,9.136C17.665,45.999,13.886,41.91,11.745,36.863z" clip-rule="evenodd"/><path fill="#203a43" fill-rule="evenodd" d="M24.005,42.999	c-11.569,0-14-14.74-14-24c0-7.123,4.917-14,14-14s14,6.877,14,14C38.005,28.259,35.574,42.999,24.005,42.999z" clip-rule="evenodd"/><path fill-rule="evenodd" d="M11.745,34.863	c-2.129-5.021-2.74-11.175-2.74-15.864c0-7.579,5.273-15,15-15c9.725,0,15,7.421,15,15c0,4.689-0.612,10.843-2.741,15.864	c-2.141,5.047-5.92,9.136-12.259,9.136C17.665,43.999,13.886,39.91,11.745,34.863z M34.422,34.082	c1.979-4.664,2.583-10.511,2.583-15.083c0-6.665-4.561-13-13-13c-8.44,0-13,6.335-13,13c0,4.572,0.603,10.419,2.581,15.083	c1.967,4.637,5.188,7.917,10.419,7.917C29.234,41.999,32.455,38.719,34.422,34.082z" clip-rule="evenodd"/><path fill-rule="evenodd" d="M21.005,35.999c0-0.551,0.448-1,1-1h4	c0.551,0,1,0.449,1,1c0,0.552-0.449,1-1,1h-4C21.453,36.999,21.005,36.551,21.005,35.999z" clip-rule="evenodd"/><path fill-rule="evenodd" d="M19.005,21.998	c0.552,0,1.001,0.449,1.001,1.001s-0.449,1.001-1.001,1.001s-1.001-0.449-1.001-1.001S18.453,21.998,19.005,21.998z" clip-rule="evenodd"/><path fill-rule="evenodd" d="M14.005,22.999c0-2.757,2.241-5,5-5	c2.757,0,5,2.243,5,5c0,2.759-2.243,5-5,5C16.246,27.999,14.005,25.758,14.005,22.999z M22.005,22.999c0-1.652-1.348-3-3-3	c-1.653,0-3,1.348-3,3c0,1.653,1.347,3,3,3C20.657,25.999,22.005,24.653,22.005,22.999z" clip-rule="evenodd"/><path fill-rule="evenodd" d="M29.002,21.998	c-0.552,0-1.001,0.449-1.001,1.001s0.449,1.001,1.001,1.001s1.001-0.449,1.001-1.001S29.554,21.998,29.002,21.998z" clip-rule="evenodd"/><path fill-rule="evenodd" d="M24.002,22.999c0-2.757,2.241-5,5-5	c2.757,0,5,2.243,5,5c0,2.759-2.243,5-5,5C26.243,27.999,24.002,25.758,24.002,22.999z M32.002,22.999c0-1.652-1.348-3-3-3	c-1.653,0-3,1.348-3,3c0,1.653,1.347,3,3,3C30.654,25.999,32.002,24.653,32.002,22.999z" clip-rule="evenodd"/><path fill-rule="evenodd" d="M10.005,16.999l-3,2v8l4,2l-1-7	V16.999z" clip-rule="evenodd"/><path fill-rule="evenodd" d="M10.003,38.999v-10	c0-0.551,0.448-1,1-1c0.551,0,1,0.449,1,1v10c0,0.552-0.449,1-1,1C10.451,39.999,10.003,39.551,10.003,38.999z" clip-rule="evenodd"/><path fill-rule="evenodd" d="M37.999,16.999l3,2v8l-4,2l1-7V16.999	z" clip-rule="evenodd"/><path fill-rule="evenodd" d="M36.001,38.999v-10	c0-0.551,0.448-1,1-1c0.551,0,1,0.449,1,1v10c0,0.552-0.449,1-1,1C36.449,39.999,36.001,39.551,36.001,38.999z" clip-rule="evenodd"/><path fill-rule="evenodd" d="M24.005,4.999l-5.383-0.131	c2.165-0.801,3.445-3.869,5.375-3.869s3.217,3.068,5.383,3.869L24.005,4.999z" clip-rule="evenodd"/><path fill="#203a43" fill-rule="evenodd" d="M24.006,1.999	c0.552,0,1.001,0.448,1.001,1s-0.449,1-1.001,1c-0.552,0-1.001-0.448-1.001-1S23.454,1.999,24.006,1.999z" clip-rule="evenodd"/><path fill-rule="evenodd" d="M21.297,32.707	c-0.391-0.391-0.391-1.024,0-1.415l2-2c0.391-0.391,1.024-0.391,1.415,0l2,2c0.391,0.391,0.391,1.024,0,1.415	c-0.391,0.391-1.024,0.391-1.415,0l-1.292-1.293l-1.293,1.293C22.321,33.098,21.687,33.098,21.297,32.707z" clip-rule="evenodd"/></svg>