<svg xmlns="http://www.w3.org/2000/svg"  viewBox="0 0 48 48" width="48px" height="48px" fill-rule="evenodd" clip-rule="evenodd" baseProfile="basic"><path fill-rule="evenodd" d="M6.018,37.999v2.001h36.001v-2.001	H6.018z" clip-rule="evenodd"/><path fill-rule="evenodd" d="M19.214,47.599l-2.541-3.387	l-4.288,1.716c-0.656,0.263-1.371-0.223-1.371-0.929v-4h-4c-0.725,0-1.209-0.749-0.913-1.409c0.989-2.2,1.913-4.409,1.913-6.591v-12	c0-7.987,3.609-19,15.987-19c12.409,0,16,11.064,16,19v12c0,2.181,0.923,4.391,1.912,6.591c0.296,0.66-0.188,1.409-0.912,1.409h-4v4	c0,0.707-0.716,1.192-1.372,0.929l-4.288-1.716l-2.54,3.387c-0.332,0.443-0.959,0.532-1.4,0.2l-3.4-2.548l-3.387,2.548	C20.173,48.131,19.545,48.042,19.214,47.599z" clip-rule="evenodd"/><path fill="#fff" fill-rule="evenodd" d="M24.001,41.999l-3.987,3	l-3-4l-5,2v-5h-5c0.979-2.176,2-4.573,2-7v-12c0-7.807,3.432-18,14.987-18s15,10.191,15,18v12c0,2.427,1.021,4.824,2,7h-5v5l-5-2	l-3,4L24.001,41.999z" clip-rule="evenodd"/><path fill-rule="evenodd" d="M19.214,45.599l-2.541-3.387	l-4.288,1.716c-0.656,0.263-1.371-0.223-1.371-0.929v-4h-4c-0.725,0-1.209-0.749-0.913-1.409c0.989-2.2,1.913-4.409,1.913-6.591v-12	c0-7.987,3.609-19,15.987-19c12.409,0,16,11.064,16,19v12c0,2.181,0.923,4.391,1.912,6.591c0.296,0.66-0.188,1.409-0.912,1.409h-4v4	c0,0.707-0.716,1.192-1.372,0.929l-4.288-1.716l-2.54,3.387c-0.332,0.443-0.959,0.532-1.4,0.2l-3.4-2.548l-3.387,2.548	C20.173,46.131,19.545,46.042,19.214,45.599z M20.213,43.599l3.187-2.399c0.355-0.267,0.845-0.268,1.201-0.001l3.2,2.4l2.4-3.2	c0.271-0.361,0.751-0.496,1.171-0.328l3.629,1.452v-3.524c0-0.551,0.448-1,1-1h3.473l-0.121-0.279	c-0.724-1.76-1.352-3.716-1.352-5.721v-12c0-7.627-3.267-17-14-17c-10.699,0-13.987,9.319-13.987,17v12	c0,2.005-0.631,3.961-1.355,5.721l-0.121,0.279h3.476c0.551,0,1,0.449,1,1v3.524l3.628-1.452c0.42-0.168,0.9-0.033,1.172,0.328	L20.213,43.599z" clip-rule="evenodd"/><path fill-rule="evenodd" d="M8.014,23.999	c0-5.119,2.097-9.771,6.752-11.625l0.248-0.085V9.999c0-0.587,0.504-1.048,1.088-0.996c0.724,0.065,1.444,0.193,2.157,0.375	l0.753,0.22l0.001-1.599c0-0.721,0.744-1.207,1.404-0.913c1.208,0.536,2.339,1.251,3.361,2.22l0.219,0.219l0.219-0.22	c1.029-0.971,2.169-1.684,3.376-2.219c0.66-0.293,1.405,0.192,1.405,0.913v1.597l0.752-0.219c0.715-0.181,1.433-0.309,2.159-0.375	c0.584-0.052,1.089,0.409,1.089,0.996v2.291l0.248,0.085c4.663,1.859,6.752,6.523,6.752,11.624c0,0.552-0.449,1-1,1	c-0.552,0-1-0.448-1-1c0-4.904-2.059-8.796-6.283-10.04c-0.425-0.125-0.717-0.516-0.717-0.96v-1.844l-0.755,0.161	c-0.62,0.157-1.245,0.363-1.877,0.613c-0.656,0.259-1.368-0.225-1.368-0.931V9.683l-0.531,0.345c-0.608,0.447-1.176,0.977-1.7,1.609	c-0.399,0.483-1.141,0.483-1.54,0c-0.525-0.633-1.091-1.164-1.695-1.612l-0.519-0.339v1.312c0,0.705-0.713,1.189-1.369,0.931	c-0.632-0.251-1.259-0.456-1.879-0.613l-0.752-0.161v1.844c0,0.444-0.293,0.835-0.719,0.96c-4.212,1.24-6.281,5.119-6.281,10.04	c0,0.552-0.449,1-1,1C8.462,24.999,8.014,24.551,8.014,23.999z" clip-rule="evenodd"/><path fill-rule="evenodd" d="M18.011,33.001	c0-1.656,1.344-3.001,3.001-3.001c0.596,0,5.403-0.003,6-0.003c1.656,0,3.001,1.345,3.001,3.001c0,1.657-1.345,3.001-3.001,3.001	c-0.597,0-5.403,0.003-6,0.003C19.355,36.002,18.011,34.658,18.011,33.001z M27.013,33.999c0.551,0,1.001-0.449,1.001-1.001	c0-0.551-0.451-1.001-1.001-1.001c-0.597,0-5.404,0.003-6,0.003c-0.552,0-1.001,0.451-1.001,1.001c0,0.552,0.449,1.001,1.001,1.001	C21.61,34.002,26.415,33.999,27.013,33.999z" clip-rule="evenodd"/><path fill-rule="evenodd" d="M21.59,28.573	c-0.373-0.159-0.76-0.392-1.061-0.739c-0.316-0.364-0.515-0.828-0.515-1.369c0-1.117,0.657-1.997,1.391-2.555	c0.735-0.559,1.689-0.911,2.591-0.911c0.9,0,1.857,0.352,2.596,0.908c0.736,0.555,1.404,1.435,1.404,2.557	c0,0.544-0.204,1.011-0.523,1.373c-0.304,0.345-0.692,0.577-1.067,0.736c-0.744,0.315-1.64,0.425-2.411,0.425	C23.223,28.999,22.331,28.889,21.59,28.573z M25.627,26.733c0.201-0.085,0.301-0.167,0.343-0.215l0.025-0.053	c0-0.28-0.173-0.633-0.608-0.96c-0.431-0.324-0.972-0.505-1.392-0.505c-0.419,0-0.956,0.18-1.381,0.503	c-0.428,0.325-0.6,0.677-0.6,0.963l0.024,0.057c0.04,0.047,0.139,0.127,0.336,0.211c0.403,0.172,1,0.267,1.621,0.267	C24.614,26.999,25.218,26.905,25.627,26.733z" clip-rule="evenodd"/><path fill-rule="evenodd" d="M19.774,45.683	c-0.521-0.184-0.793-0.756-0.608-1.276c0.283-0.799,0.493-1.571,0.633-2.425c0.14-0.856,0.215-1.813,0.215-2.983	c0-0.551,0.448-1,1-1c0.551,0,1,0.449,1,1c0,1.255-0.079,2.321-0.241,3.307c-0.161,0.988-0.404,1.875-0.723,2.769	C20.866,45.597,20.294,45.869,19.774,45.683z" clip-rule="evenodd"/><path fill-rule="evenodd" d="M26.955,45.075	c-0.319-0.895-0.561-1.781-0.723-2.769c-0.163-0.985-0.24-2.052-0.24-3.307c0-0.551,0.448-1,1-1c0.551,0,1,0.449,1,1	c0,1.169,0.073,2.127,0.213,2.983c0.14,0.855,0.351,1.627,0.633,2.425c0.185,0.52-0.087,1.092-0.608,1.276	C27.711,45.869,27.139,45.597,26.955,45.075z" clip-rule="evenodd"/><path fill-rule="evenodd" d="M11.709,43.445	c-0.459-0.308-0.581-0.929-0.275-1.388c0.585-0.873,1.237-1.708,1.759-2.599c0.512-0.876,0.821-1.683,0.821-2.459v-5	c0-2.191,1.784-4.084,3.583-4.908c0.501-0.231,1.096-0.009,1.325,0.492c0.231,0.501,0.009,1.096-0.492,1.325	c-1.356,0.623-2.416,1.941-2.416,3.091v5c0,1.297-0.512,2.469-1.096,3.468c-0.575,0.984-1.279,1.892-1.821,2.703	C12.789,43.629,12.167,43.751,11.709,43.445z" clip-rule="evenodd"/><path fill-rule="evenodd" d="M34.906,43.17	c-0.524-0.784-1.247-1.72-1.821-2.703c-0.584-0.999-1.095-2.171-1.095-3.468v-5c0-1.141-1.071-2.472-2.417-3.091	c-0.501-0.229-0.723-0.824-0.492-1.325c0.229-0.501,0.824-0.723,1.325-0.492c1.789,0.82,3.584,2.725,3.584,4.908v5	c0,0.776,0.308,1.583,0.82,2.459c0.521,0.889,1.192,1.753,1.759,2.599c0.307,0.459,0.184,1.08-0.275,1.388	C35.835,43.751,35.214,43.629,34.906,43.17z" clip-rule="evenodd"/><path fill-rule="evenodd" d="M19.014,16.999c1.656,0,3,1.344,3,3	c0,1.656-1.344,3-3,3c-2.86,0-4.592,0.775-6,2C13.014,20.215,16.029,16.999,19.014,16.999z" clip-rule="evenodd"/><path fill="#fff" fill-rule="evenodd" d="M19.014,18.999	c0.552,0,1,0.448,1,1c0,0.552-0.448,1-1,1c-0.552,0-1-0.448-1-1C18.014,19.447,18.462,18.999,19.014,18.999z" clip-rule="evenodd"/><path fill-rule="evenodd" d="M28.987,16.999c-1.656,0-3,1.344-3,3	c0,1.656,1.344,3,3,3c2.86,0,4.592,0.775,6,2C34.987,20.215,31.973,16.999,28.987,16.999z" clip-rule="evenodd"/><path fill="#fff" fill-rule="evenodd" d="M28.987,18.999	c-0.552,0-1,0.448-1,1c0,0.552,0.448,1,1,1s1-0.448,1-1C29.987,19.447,29.539,18.999,28.987,18.999z" clip-rule="evenodd"/><path fill-rule="evenodd" d="M22.014,30.999	c0.552,0,1.001,0.448,1.001,1c0,0.552-0.449,1-1.001,1s-1.001-0.448-1.001-1C21.013,31.447,21.462,30.999,22.014,30.999z" clip-rule="evenodd"/><path fill-rule="evenodd" d="M26.013,30.999	c0.552,0,1.001,0.448,1.001,1c0,0.552-0.449,1-1.001,1c-0.552,0-1.001-0.448-1.001-1C25.011,31.447,25.461,30.999,26.013,30.999z" clip-rule="evenodd"/></svg>